<svg width="24" height="24" viewBox="0 0 24 24" fill="none" xmlns="http://www.w3.org/2000/svg">
<path d="M11.3391 11.5112L2.08301 21.1831C2.18927 21.5489 2.37737 21.8859 2.63313 22.1687C2.88889 22.4515 3.20565 22.6728 3.55956 22.8158C3.91347 22.9588 4.29531 23.0199 4.67632 22.9945C5.05733 22.9691 5.42759 22.8577 5.75923 22.6689L16.174 16.753L11.3391 11.5112Z" fill="#EA4335"/>
<path d="M20.6983 9.86692L16.1945 7.29419L11.125 11.7311L16.2151 16.739L20.6845 14.1938C20.97 14.0458 21.2233 13.843 21.43 13.5971C21.6366 13.3512 21.7925 13.067 21.8886 12.7608C21.9847 12.4546 22.0193 12.1324 21.9902 11.8129C21.9611 11.4934 21.869 11.1827 21.7191 10.8988C21.4853 10.4595 21.125 10.1001 20.6845 9.86692H20.6983Z" fill="#FBBC04"/>
<path d="M2.08277 2.82983C2.02769 3.0363 1.99987 3.24905 2 3.4627V20.55C1.99987 20.7637 2.02769 20.9764 2.08277 21.1829L11.6561 11.7587L2.08277 2.82983Z" fill="#4285F4"/>
<path d="M11.408 12.0063L16.1947 7.29426L5.79371 1.35083C5.40229 1.12258 4.95734 1.00155 4.50393 1C3.95628 0.998923 3.42329 1.17647 2.98622 1.50558C2.54914 1.83469 2.23196 2.29732 2.08301 2.82293L11.408 12.0063Z" fill="#34A853"/>
</svg>
