<?xml version="1.0" standalone="no"?>
<!DOCTYPE svg PUBLIC "-//W3C//DTD SVG 20010904//EN"
 "http://www.w3.org/TR/2001/REC-SVG-20010904/DTD/svg10.dtd">
<svg version="1.0" xmlns="http://www.w3.org/2000/svg"
 width="310.000000pt" height="310.000000pt" viewBox="0 0 310.000000 310.000000"
 preserveAspectRatio="xMidYMid meet">
<metadata>
Created by potrace 1.14, written by Peter Selinger 2001-2017
</metadata>
<g transform="translate(0.000000,310.000000) scale(0.100000,-0.100000)"
fill="#000000" stroke="none">
<path d="M865 2712 l-670 -387 0 -775 0 -775 673 -387 673 -388 674 388 674
387 0 775 1 775 -671 385 c-368 212 -673 386 -677 387 -4 0 -308 -173 -677
-385z m1388 -212 l447 -265 0 -695 0 -695 -577 -343 c-318 -189 -582 -344
-587 -345 -4 0 -269 154 -587 343 l-579 344 0 303 0 303 85 0 85 0 2 -251 3
-252 494 -293 494 -294 111 65 c61 35 284 167 496 293 l385 229 0 592 0 592
-494 294 c-476 283 -495 293 -520 280 -14 -8 -237 -140 -496 -293 l-470 -280
-3 -186 -2 -186 84 0 85 0 3 137 3 136 356 212 c196 116 380 226 410 243 l55
31 410 -243 409 -243 3 -202 2 -201 -85 0 -84 0 -3 148 -3 147 -320 192 c-176
106 -324 192 -328 193 -5 0 -154 -87 -332 -192 l-325 -193 0 -147 0 -148 -255
0 -255 0 0 303 0 302 582 346 582 346 136 -81 c75 -45 338 -200 583 -346z
m-477 -537 l233 -138 1 -97 0 -98 -85 0 -85 0 0 44 0 44 -147 87 c-82 48 -152
88 -158 88 -5 0 -76 -40 -157 -88 l-148 -87 0 -178 0 -177 147 -88 c81 -49
152 -88 158 -88 6 0 77 39 158 88 l147 88 0 43 0 44 85 0 85 0 0 -97 0 -98
-235 -139 c-163 -96 -240 -136 -252 -131 -10 3 -118 66 -240 138 l-223 132 0
285 1 285 232 137 c127 76 236 138 241 138 5 0 114 -62 242 -137z m-896 -661
l0 -148 324 -192 c178 -106 326 -192 330 -192 4 0 153 87 332 192 l324 193 0
147 0 148 85 0 85 0 -2 -202 -3 -202 -350 -208 c-192 -115 -378 -224 -411
-243 l-61 -35 -409 243 -409 243 -3 202 -2 202 85 0 85 0 0 -148z"/>
</g>
</svg>
